<?xml version="1.0" encoding="utf-8"?>
<svg viewBox="-9.111 250.003 509.111 223.428" xmlns="http://www.w3.org/2000/svg">
  <defs/>
  <path d="M 90.38 396.64 Q 90.38 398.58 87.98 399.48 Q 85.58 400.39 82.72 400.39 L 82.21 400.39 Q 76.74 400.39 75.29 399.96 Q 73.83 399.54 72.91 399.12 Q 71.06 398.2 71.06 396.13 Q 71.06 395.21 73.31 395.08 Q 75.56 394.96 75.56 393.65 Q 75.56 393.19 74.76 391.63 L 74.8 391.63 L 70.17 380.6 L 45.38 380.6 Q 40.88 392.47 40.88 393.52 Q 40.88 394.58 41.43 394.75 L 41.38 394.7 Q 41.68 394.87 42.81 395.17 Q 45.63 395.84 45.63 396.64 Q 45.63 400.39 36.16 400.39 Q 28.29 400.39 28.29 396.64 Q 28.29 395.84 31.13 395.04 Q 33.98 394.24 35.15 391.08 L 52.2 346.51 Q 51.78 345.37 51.78 344.53 Q 51.78 341.29 58.39 341.29 Q 63.69 341.29 65.25 345.33 L 83.01 390.79 Q 84.53 394.41 87.64 394.91 Q 89.62 395.21 90 395.57 Q 90.38 395.92 90.38 396.64 Z M 47.02 376.56 L 68.49 376.56 L 57.55 346.51 Z M 147.32 341.29 L 151.82 341.25 Q 157.5 341.25 158.64 342.72 Q 159.02 343.18 159.02 343.86 Q 159.02 345.96 155.19 346.57 Q 151.36 347.18 150.1 348.7 L 129.77 394.79 Q 128.34 397.99 126.67 399.56 Q 125.01 401.14 122.74 401.14 Q 120.47 401.14 118.68 399.52 Q 116.89 397.9 114.95 393.69 L 94.66 348.7 Q 94.29 348.24 91.8 347.52 Q 85.03 345.58 85.03 343.86 Q 85.03 342.55 86.84 342.05 Q 89.7 341.29 92.85 341.29 Q 96.01 341.29 96.31 341.29 Q 96.6 341.29 97.69 341.29 L 99.93 341.29 Q 104.22 341.29 105.63 341.77 Q 107.04 342.26 107.71 342.64 Q 109.1 343.44 109.35 345.08 Q 109.27 345.67 108.58 346.05 Q 107.88 346.43 107.46 346.45 Q 107.04 346.47 106.43 346.59 Q 105.82 346.72 105.46 346.83 Q 105.1 346.93 104.6 347.1 Q 103.67 347.48 103.67 348.11 L 124.04 393.52 Q 127.83 383.63 137.76 360.74 L 140.92 353.5 Q 143.07 348.49 143.07 348.03 Q 143.07 347.23 141.34 346.91 Q 139.62 346.59 137.89 346.26 Q 136.17 345.92 136.17 345.08 Q 136.17 341.59 144.08 341.33 Q 145.38 341.29 147.32 341.29 Z M 169.27 400.39 Q 160.05 400.39 160.05 396.6 Q 160.05 395.12 162.91 394.75 Q 164.26 394.53 164.72 394.32 Q 166.36 393.65 166.36 391.34 L 166.36 350.3 Q 166.36 347.27 163.21 346.85 Q 162.62 346.76 162.11 346.7 Q 161.61 346.64 161.27 346.57 Q 160.93 346.51 160.81 346.43 Q 160.68 346.34 160.49 346.19 Q 160.3 346.05 160.22 345.84 Q 160.05 345.29 160.05 344.72 Q 160.05 344.15 160.24 343.65 Q 160.43 343.14 160.91 342.76 Q 161.4 342.39 161.84 342.13 Q 162.28 341.88 163.19 341.73 Q 164.09 341.59 164.7 341.48 Q 165.31 341.38 166.57 341.33 Q 167.84 341.29 168.55 341.29 Q 169.9 341.29 171.25 341.29 Q 172.59 341.29 173.46 341.31 Q 174.32 341.33 175.54 341.42 Q 176.76 341.5 177.56 341.63 Q 178.36 341.75 179.26 342.05 Q 180.17 342.34 180.67 342.72 Q 181.89 343.61 181.89 344.81 Q 181.89 346 181.07 346.36 Q 180.25 346.72 178.95 346.87 Q 177.64 347.02 177.18 347.23 Q 175.54 347.98 175.54 350.3 L 175.54 391.34 Q 175.54 393.19 176.53 393.97 Q 177.52 394.75 178.93 394.89 Q 180.34 395.04 180.76 395.17 Q 181.89 395.42 181.89 396.53 Q 181.89 397.65 181.52 398.28 Q 181.14 398.91 180.25 399.31 Q 179.37 399.71 178.57 399.94 Q 177.77 400.17 176.25 400.26 Q 173.98 400.39 169.27 400.39 Z M 251.5 384.05 Q 251.5 381.4 250.68 379.4 Q 249.86 377.4 248.24 376.1 Q 246.62 374.79 244.68 373.93 Q 242.74 373.07 240.01 372.65 Q 235.08 371.89 228.98 371.89 L 219.47 371.89 L 219.47 388.18 Q 219.47 392.35 220.88 393.99 Q 222.29 395.63 226.12 395.63 L 233.11 395.63 Q 244.01 395.63 248.17 392.14 Q 251.5 389.36 251.5 384.05 Z M 204.13 345.86 Q 204.13 345.86 204.1 345.76 Q 204.06 345.67 204 345.39 Q 203.94 345.12 203.94 344.32 Q 203.94 343.52 204.59 342.74 Q 205.24 341.96 206.88 341.67 Q 208.99 341.29 214.8 341.29 L 231.09 341.29 Q 256.51 341.29 256.51 355.94 Q 256.51 361.16 253.06 364.19 Q 250.24 366.71 245.61 368.69 Q 260.8 373.49 260.8 384.43 Q 260.8 388.94 258.59 392.16 Q 256.38 395.38 252.42 397.1 Q 245.02 400.43 233.57 400.43 L 214.8 400.39 Q 208.99 400.39 207.39 400.09 Q 204.06 399.21 203.94 396.6 Q 203.94 395.12 206.8 394.75 Q 208.15 394.53 208.61 394.32 Q 210.25 393.65 210.25 391.34 L 210.25 350.3 Q 210.25 347.27 207.09 346.85 Q 206.5 346.76 206 346.7 Q 205.49 346.64 205.16 346.57 Q 204.82 346.51 204.69 346.43 Q 204.57 346.34 204.38 346.19 Q 204.19 346.05 204.13 345.86 Z M 233.48 367.01 Q 243.67 367.01 246.83 361.91 Q 248.01 359.98 248.01 357.43 Q 248.01 354.89 247.16 353.01 Q 246.32 351.14 244.68 349.96 Q 243.04 348.78 241.17 348.03 Q 239.29 347.27 236.64 346.93 Q 232.14 346.3 227.51 346.3 Q 222.88 346.3 221.17 347.58 Q 219.47 348.87 219.47 352.36 L 219.47 367.01 Z M 315.13 349.12 Q 315.13 349.12 315.64 349.88 Q 316.14 350.63 316.75 352.66 Q 317.36 354.68 317.36 357.39 Q 317.36 360.11 316.33 362.63 Q 315.3 365.16 313.64 366.9 Q 311.98 368.65 309.62 370.04 Q 305.41 372.52 299.6 373.66 L 301.79 376.69 Q 302.68 377.91 304.15 380.01 Q 305.62 382.12 306.48 383.32 Q 307.35 384.52 308.69 386.26 Q 310.04 388.01 311.09 389.19 Q 313.58 392.05 316.21 394.05 Q 318.84 396.05 324.6 396.05 Q 325.32 396.77 325.32 397.73 Q 325.32 401.06 318.31 401.06 Q 311.3 401.06 307.81 398.7 L 307.85 398.7 Q 302.34 394.16 295.1 380.73 L 291.61 374.33 L 279.95 374.33 L 279.95 393.15 Q 279.95 393.9 281.71 394.45 Q 283.48 395 285.25 395.48 Q 287.02 395.97 287.02 396.6 Q 287.02 397.99 286.34 398.81 Q 285.67 399.63 283.9 399.96 Q 281.63 400.34 278.16 400.34 Q 274.69 400.34 273.46 400.36 Q 272.24 400.39 270.98 400.36 Q 269.72 400.34 268.6 400.28 Q 267.49 400.22 266.54 399.99 Q 265.59 399.75 264.88 399.37 Q 263.45 398.66 263.45 397.31 Q 263.45 395.97 264.54 395.48 Q 265.64 395 266.98 394.96 Q 270.52 394.83 270.52 393.15 L 270.52 348.45 Q 270.52 347.44 268.75 347.02 Q 266.98 346.59 265.22 346.24 Q 263.45 345.88 263.45 345.02 Q 263.45 344.15 264.02 343.5 Q 264.58 342.85 265.72 342.45 Q 266.86 342.05 268.04 341.8 Q 269.21 341.54 270.98 341.46 Q 273.46 341.29 277 341.29 L 284.28 341.29 Q 295.06 341.29 298.76 341.86 Q 302.46 342.43 304.91 343.02 Q 307.35 343.61 309.07 344.41 Q 310.8 345.21 312.46 346.4 Q 314.12 347.6 315.13 349.12 Z M 307.89 358.76 Q 307.89 355.81 306.74 353.5 Q 305.58 351.18 303.73 349.84 Q 301.88 348.49 299.1 347.69 Q 294.47 346.3 288.81 346.3 Q 283.15 346.3 281.55 347.44 Q 279.95 348.57 279.95 352.28 L 279.95 369.24 L 291.31 369.24 Q 307.89 369.24 307.89 358.76 Z M 385.62 396.64 Q 385.62 398.58 383.22 399.48 Q 380.82 400.39 377.96 400.39 L 377.45 400.39 Q 371.98 400.39 370.53 399.96 Q 369.08 399.54 368.15 399.12 Q 366.3 398.2 366.3 396.13 Q 366.3 395.21 368.55 395.08 Q 370.8 394.96 370.8 393.65 Q 370.8 393.19 370.01 391.63 L 370.05 391.63 L 365.42 380.6 L 340.63 380.6 Q 336.12 392.47 336.12 393.52 Q 336.12 394.58 336.67 394.75 L 336.63 394.7 Q 336.92 394.87 338.06 395.17 Q 340.88 395.84 340.88 396.64 Q 340.88 400.39 331.41 400.39 Q 323.54 400.39 323.54 396.64 Q 323.54 395.84 326.38 395.04 Q 329.22 394.24 330.4 391.08 L 347.44 346.51 Q 347.02 345.37 347.02 344.53 Q 347.02 341.29 353.63 341.29 Q 358.94 341.29 360.49 345.33 L 378.25 390.79 Q 379.77 394.41 382.88 394.91 Q 384.86 395.21 385.24 395.57 Q 385.62 395.92 385.62 396.64 Z M 342.27 376.56 L 363.73 376.56 L 352.79 346.51 Z M 442.81 349.12 Q 442.81 349.12 443.31 349.88 Q 443.82 350.63 444.43 352.66 Q 445.04 354.68 445.04 357.39 Q 445.04 360.11 444.01 362.63 Q 442.98 365.16 441.31 366.9 Q 439.65 368.65 437.29 370.04 Q 433.08 372.52 427.28 373.66 L 429.46 376.69 Q 430.35 377.91 431.82 380.01 Q 433.29 382.12 434.16 383.32 Q 435.02 384.52 436.37 386.26 Q 437.71 388.01 438.77 389.19 Q 441.25 392.05 443.88 394.05 Q 446.51 396.05 452.28 396.05 Q 452.99 396.77 452.99 397.73 Q 452.99 401.06 445.98 401.06 Q 438.98 401.06 435.48 398.7 L 435.53 398.7 Q 430.01 394.16 422.77 380.73 L 419.28 374.33 L 407.62 374.33 L 407.62 393.15 Q 407.62 393.9 409.39 394.45 Q 411.16 395 412.92 395.48 Q 414.69 395.97 414.69 396.6 Q 414.69 397.99 414.02 398.81 Q 413.34 399.63 411.58 399.96 Q 409.3 400.34 405.83 400.34 Q 402.36 400.34 401.14 400.36 Q 399.92 400.39 398.65 400.36 Q 397.39 400.34 396.28 400.28 Q 395.16 400.22 394.21 399.99 Q 393.27 399.75 392.55 399.37 Q 391.12 398.66 391.12 397.31 Q 391.12 395.97 392.21 395.48 Q 393.31 395 394.66 394.96 Q 398.19 394.83 398.19 393.15 L 398.19 348.45 Q 398.19 347.44 396.42 347.02 Q 394.66 346.59 392.89 346.24 Q 391.12 345.88 391.12 345.02 Q 391.12 344.15 391.69 343.5 Q 392.26 342.85 393.39 342.45 Q 394.53 342.05 395.71 341.8 Q 396.89 341.54 398.65 341.46 Q 401.14 341.29 404.67 341.29 L 411.95 341.29 Q 422.73 341.29 426.43 341.86 Q 430.14 342.43 432.58 343.02 Q 435.02 343.61 436.75 344.41 Q 438.47 345.21 440.13 346.4 Q 441.8 347.6 442.81 349.12 Z M 435.57 358.76 Q 435.57 355.81 434.41 353.5 Q 433.25 351.18 431.4 349.84 Q 429.55 348.49 426.77 347.69 Q 422.14 346.3 416.48 346.3 Q 410.82 346.3 409.22 347.44 Q 407.62 348.57 407.62 352.28 L 407.62 369.24 L 418.98 369.24 Q 435.57 369.24 435.57 358.76 Z" style="fill: rgb(255, 255, 255); text-decoration: underline solid rgba(0, 0, 0, 0.85);"/>
</svg>